<svg width="551" height="136" viewBox="0 0 551 136" fill="none" xmlns="http://www.w3.org/2000/svg">
<path d="M61.005 36.275V68H52.185V36.275H61.005ZM82.5428 42.53C85.4528 42.53 87.7628 43.505 89.4728 45.455C91.1828 47.375 92.0378 49.985 92.0378 53.285V68H83.2178V54.455C83.2178 53.015 82.8428 51.89 82.0928 51.08C81.3428 50.24 80.3378 49.82 79.0778 49.82C77.7578 49.82 76.7228 50.24 75.9728 51.08C75.2228 51.89 74.8478 53.015 74.8478 54.455V68H66.0278V42.755H74.8478V46.355C75.6278 45.215 76.6778 44.3 77.9978 43.61C79.3178 42.89 80.8328 42.53 82.5428 42.53ZM101.332 40.415C99.7724 40.415 98.5124 39.995 97.5524 39.155C96.6224 38.285 96.1574 37.205 96.1574 35.915C96.1574 34.595 96.6224 33.5 97.5524 32.63C98.5124 31.76 99.7724 31.325 101.332 31.325C102.862 31.325 104.092 31.76 105.022 32.63C105.982 33.5 106.462 34.595 106.462 35.915C106.462 37.205 105.982 38.285 105.022 39.155C104.092 39.995 102.862 40.415 101.332 40.415ZM105.697 42.755V68H96.8774V42.755H105.697ZM109.28 55.355C109.28 52.745 109.82 50.465 110.9 48.515C111.98 46.565 113.48 45.065 115.4 44.015C117.35 42.965 119.57 42.44 122.06 42.44C125.27 42.44 127.97 43.325 130.16 45.095C132.35 46.835 133.76 49.28 134.39 52.43H125.03C124.49 50.78 123.44 49.955 121.88 49.955C120.77 49.955 119.885 50.42 119.225 51.35C118.595 52.25 118.28 53.585 118.28 55.355C118.28 57.125 118.595 58.475 119.225 59.405C119.885 60.335 120.77 60.8 121.88 60.8C123.47 60.8 124.52 59.975 125.03 58.325H134.39C133.76 61.445 132.35 63.89 130.16 65.66C127.97 67.43 125.27 68.315 122.06 68.315C119.57 68.315 117.35 67.79 115.4 66.74C113.48 65.69 111.98 64.19 110.9 62.24C109.82 60.29 109.28 57.995 109.28 55.355ZM142.509 40.415C140.949 40.415 139.689 39.995 138.729 39.155C137.799 38.285 137.334 37.205 137.334 35.915C137.334 34.595 137.799 33.5 138.729 32.63C139.689 31.76 140.949 31.325 142.509 31.325C144.039 31.325 145.269 31.76 146.199 32.63C147.159 33.5 147.639 34.595 147.639 35.915C147.639 37.205 147.159 38.285 146.199 39.155C145.269 39.995 144.039 40.415 142.509 40.415ZM146.874 42.755V68H138.054V42.755H146.874ZM163.642 68.315C161.122 68.315 158.857 67.79 156.847 66.74C154.867 65.69 153.307 64.19 152.167 62.24C151.027 60.29 150.457 57.995 150.457 55.355C150.457 52.745 151.027 50.465 152.167 48.515C153.337 46.565 154.912 45.065 156.892 44.015C158.902 42.965 161.167 42.44 163.687 42.44C166.207 42.44 168.457 42.965 170.437 44.015C172.447 45.065 174.022 46.565 175.162 48.515C176.332 50.465 176.917 52.745 176.917 55.355C176.917 57.965 176.332 60.26 175.162 62.24C174.022 64.19 172.447 65.69 170.437 66.74C168.427 67.79 166.162 68.315 163.642 68.315ZM163.642 60.665C164.872 60.665 165.892 60.215 166.702 59.315C167.542 58.385 167.962 57.065 167.962 55.355C167.962 53.645 167.542 52.34 166.702 51.44C165.892 50.54 164.887 50.09 163.687 50.09C162.487 50.09 161.482 50.54 160.672 51.44C159.862 52.34 159.457 53.645 159.457 55.355C159.457 57.095 159.847 58.415 160.627 59.315C161.407 60.215 162.412 60.665 163.642 60.665Z" fill="white"/>
<path d="M209.414 41.675L198.614 68H189.569L200.459 42.71H187.634V35.15H209.414V41.675ZM219.847 55.355C219.847 52.745 220.312 50.465 221.242 48.515C222.202 46.565 223.507 45.065 225.157 44.015C226.807 42.965 228.637 42.44 230.647 42.44C232.267 42.44 233.707 42.785 234.967 43.475C236.257 44.135 237.262 45.05 237.982 46.22V34.7H246.847V68H237.982V64.49C237.292 65.66 236.317 66.59 235.057 67.28C233.797 67.97 232.312 68.315 230.602 68.315C228.592 68.315 226.762 67.79 225.112 66.74C223.492 65.69 222.202 64.19 221.242 62.24C220.312 60.26 219.847 57.965 219.847 55.355ZM238.027 55.355C238.027 53.735 237.577 52.46 236.677 51.53C235.807 50.6 234.727 50.135 233.437 50.135C232.117 50.135 231.022 50.6 230.152 51.53C229.282 52.43 228.847 53.705 228.847 55.355C228.847 56.975 229.282 58.265 230.152 59.225C231.022 60.155 232.117 60.62 233.437 60.62C234.727 60.62 235.807 60.155 236.677 59.225C237.577 58.295 238.027 57.005 238.027 55.355ZM275.993 55.085C275.993 55.775 275.948 56.465 275.858 57.155H259.163C259.253 58.535 259.628 59.57 260.288 60.26C260.978 60.92 261.848 61.25 262.898 61.25C264.368 61.25 265.418 60.59 266.048 59.27H275.453C275.063 61.01 274.298 62.57 273.158 63.95C272.048 65.3 270.638 66.365 268.928 67.145C267.218 67.925 265.328 68.315 263.258 68.315C260.768 68.315 258.548 67.79 256.598 66.74C254.678 65.69 253.163 64.19 252.053 62.24C250.973 60.29 250.433 57.995 250.433 55.355C250.433 52.715 250.973 50.435 252.053 48.515C253.133 46.565 254.633 45.065 256.553 44.015C258.503 42.965 260.738 42.44 263.258 42.44C265.748 42.44 267.953 42.95 269.873 43.97C271.793 44.99 273.293 46.46 274.373 48.38C275.453 50.27 275.993 52.505 275.993 55.085ZM266.993 52.88C266.993 51.8 266.633 50.96 265.913 50.36C265.193 49.73 264.293 49.415 263.213 49.415C262.133 49.415 261.248 49.715 260.558 50.315C259.868 50.885 259.418 51.74 259.208 52.88H266.993ZM303.425 68.315C300.455 68.315 297.725 67.625 295.235 66.245C292.745 64.835 290.765 62.9 289.295 60.44C287.855 57.95 287.135 55.145 287.135 52.025C287.135 48.905 287.855 46.115 289.295 43.655C290.765 41.165 292.745 39.23 295.235 37.85C297.725 36.47 300.455 35.78 303.425 35.78C306.425 35.78 309.155 36.47 311.615 37.85C314.105 39.23 316.07 41.165 317.51 43.655C318.95 46.115 319.67 48.905 319.67 52.025C319.67 55.145 318.95 57.95 317.51 60.44C316.07 62.9 314.105 64.835 311.615 66.245C309.125 67.625 306.395 68.315 303.425 68.315ZM303.425 60.125C305.675 60.125 307.445 59.39 308.735 57.92C310.055 56.45 310.715 54.485 310.715 52.025C310.715 49.505 310.055 47.525 308.735 46.085C307.445 44.615 305.675 43.88 303.425 43.88C301.145 43.88 299.36 44.615 298.07 46.085C296.78 47.525 296.135 49.505 296.135 52.025C296.135 54.515 296.78 56.495 298.07 57.965C299.36 59.405 301.145 60.125 303.425 60.125ZM322.195 55.355C322.195 52.745 322.735 50.465 323.815 48.515C324.895 46.565 326.395 45.065 328.315 44.015C330.265 42.965 332.485 42.44 334.975 42.44C338.185 42.44 340.885 43.325 343.075 45.095C345.265 46.835 346.675 49.28 347.305 52.43H337.945C337.405 50.78 336.355 49.955 334.795 49.955C333.685 49.955 332.8 50.42 332.14 51.35C331.51 52.25 331.195 53.585 331.195 55.355C331.195 57.125 331.51 58.475 332.14 59.405C332.8 60.335 333.685 60.8 334.795 60.8C336.385 60.8 337.435 59.975 337.945 58.325H347.305C346.675 61.445 345.265 63.89 343.075 65.66C340.885 67.43 338.185 68.315 334.975 68.315C332.485 68.315 330.265 67.79 328.315 66.74C326.395 65.69 324.895 64.19 323.815 62.24C322.735 60.29 322.195 57.995 322.195 55.355ZM365.864 60.485V68H362.039C355.589 68 352.364 64.805 352.364 58.415V50.09H349.259V42.755H352.364V36.635H361.229V42.755H365.819V50.09H361.229V58.55C361.229 59.24 361.379 59.735 361.679 60.035C362.009 60.335 362.549 60.485 363.299 60.485H365.864ZM395.74 42.755V68H386.875V64.4C386.125 65.54 385.09 66.47 383.77 67.19C382.45 67.88 380.935 68.225 379.225 68.225C376.285 68.225 373.96 67.265 372.25 65.345C370.57 63.395 369.73 60.755 369.73 57.425V42.755H378.505V56.3C378.505 57.74 378.88 58.88 379.63 59.72C380.41 60.53 381.43 60.935 382.69 60.935C383.98 60.935 385 60.53 385.75 59.72C386.5 58.88 386.875 57.74 386.875 56.3V42.755H395.74ZM409.579 46.265C410.269 45.065 411.244 44.135 412.504 43.475C413.764 42.785 415.249 42.44 416.959 42.44C418.969 42.44 420.784 42.965 422.404 44.015C424.054 45.065 425.344 46.565 426.274 48.515C427.234 50.465 427.714 52.745 427.714 55.355C427.714 57.965 427.234 60.26 426.274 62.24C425.344 64.19 424.054 65.69 422.404 66.74C420.784 67.79 418.969 68.315 416.959 68.315C415.249 68.315 413.764 67.985 412.504 67.325C411.244 66.635 410.269 65.69 409.579 64.49V68H400.759V34.7H409.579V46.265ZM418.759 55.355C418.759 53.705 418.309 52.43 417.409 51.53C416.539 50.6 415.459 50.135 414.169 50.135C412.879 50.135 411.784 50.6 410.884 51.53C410.014 52.46 409.579 53.735 409.579 55.355C409.579 57.005 410.014 58.295 410.884 59.225C411.784 60.155 412.879 60.62 414.169 60.62C415.459 60.62 416.539 60.155 417.409 59.225C418.309 58.265 418.759 56.975 418.759 55.355ZM440.165 47.21C441.155 45.77 442.355 44.63 443.765 43.79C445.175 42.95 446.69 42.53 448.31 42.53V51.935H445.835C443.915 51.935 442.49 52.31 441.56 53.06C440.63 53.81 440.165 55.115 440.165 56.975V68H431.345V42.755H440.165V47.21ZM475.592 55.085C475.592 55.775 475.547 56.465 475.457 57.155H458.762C458.852 58.535 459.227 59.57 459.887 60.26C460.577 60.92 461.447 61.25 462.497 61.25C463.967 61.25 465.017 60.59 465.647 59.27H475.052C474.662 61.01 473.897 62.57 472.757 63.95C471.647 65.3 470.237 66.365 468.527 67.145C466.817 67.925 464.927 68.315 462.857 68.315C460.367 68.315 458.147 67.79 456.197 66.74C454.277 65.69 452.762 64.19 451.652 62.24C450.572 60.29 450.032 57.995 450.032 55.355C450.032 52.715 450.572 50.435 451.652 48.515C452.732 46.565 454.232 45.065 456.152 44.015C458.102 42.965 460.337 42.44 462.857 42.44C465.347 42.44 467.552 42.95 469.472 43.97C471.392 44.99 472.892 46.46 473.972 48.38C475.052 50.27 475.592 52.505 475.592 55.085ZM466.592 52.88C466.592 51.8 466.232 50.96 465.512 50.36C464.792 49.73 463.892 49.415 462.812 49.415C461.732 49.415 460.847 49.715 460.157 50.315C459.467 50.885 459.017 51.74 458.807 52.88H466.592ZM495.267 36.41L498.057 41.405L492.792 43.205L498.057 44.915L495.087 50.135L490.857 46.22L492.072 51.8H486.312L487.482 46.22L483.342 50.225L480.237 44.87L485.502 43.07L480.327 41.45L483.117 36.455L487.527 40.235L486.222 34.61H492.117L490.857 40.235L495.267 36.41Z" fill="#A673F7"/>
<path d="M182.958 92.704L183.702 94.624L180.198 95.848L183.27 97.072L181.83 99.04L179.454 96.88L179.358 100.36H177.15L178.206 96.88L175.086 99.088L174.294 97.048L177.774 95.824L174.726 94.648L176.166 92.68L178.59 94.84L178.734 91.336H180.966L179.814 94.84L182.958 92.704ZM184.828 102.376C185.068 101.016 185.548 99.824 186.268 98.8C187.004 97.76 187.908 96.96 188.98 96.4C190.068 95.84 191.244 95.56 192.508 95.56C194.108 95.56 195.364 95.944 196.276 96.712C197.188 97.464 197.708 98.544 197.836 99.952H194.884C194.756 99.296 194.46 98.784 193.996 98.416C193.532 98.048 192.9 97.864 192.1 97.864C190.98 97.864 190.02 98.264 189.22 99.064C188.42 99.848 187.892 100.952 187.636 102.376C187.556 102.888 187.516 103.304 187.516 103.624C187.516 104.68 187.78 105.496 188.308 106.072C188.836 106.632 189.572 106.912 190.516 106.912C192.1 106.912 193.268 106.216 194.02 104.824H196.972C196.348 106.168 195.436 107.24 194.236 108.04C193.052 108.824 191.676 109.216 190.108 109.216C188.444 109.216 187.124 108.744 186.148 107.8C185.172 106.84 184.684 105.544 184.684 103.912C184.684 103.416 184.732 102.904 184.828 102.376ZM213.258 95.776L210.93 109H208.194L208.458 107.44C207.93 107.984 207.29 108.416 206.538 108.736C205.802 109.04 205.042 109.192 204.258 109.192C202.866 109.192 201.754 108.816 200.922 108.064C200.09 107.312 199.674 106.248 199.674 104.872C199.674 104.504 199.714 104.064 199.794 103.552L201.162 95.776H203.874L202.578 103.144C202.514 103.592 202.482 103.912 202.482 104.104C202.482 104.984 202.722 105.656 203.202 106.12C203.698 106.584 204.378 106.816 205.242 106.816C206.25 106.816 207.106 106.52 207.81 105.928C208.514 105.32 208.978 104.448 209.202 103.312L210.522 95.776H213.258ZM219.268 97.72C219.844 97.112 220.564 96.6 221.428 96.184C222.308 95.768 223.252 95.56 224.26 95.56C225.268 95.56 226.164 95.776 226.948 96.208C227.732 96.64 228.34 97.256 228.772 98.056C229.204 98.856 229.42 99.792 229.42 100.864C229.42 101.328 229.372 101.816 229.276 102.328C229.036 103.656 228.548 104.848 227.812 105.904C227.092 106.944 226.204 107.76 225.148 108.352C224.108 108.928 223.012 109.216 221.86 109.216C220.852 109.216 219.988 109.016 219.268 108.616C218.564 108.2 218.012 107.688 217.612 107.08L216.172 115.288H213.436L216.868 95.776H219.604L219.268 97.72ZM226.492 102.328C226.556 102.024 226.588 101.696 226.588 101.344C226.588 100.272 226.268 99.44 225.628 98.848C225.004 98.24 224.212 97.936 223.252 97.936C222.564 97.936 221.876 98.112 221.188 98.464C220.516 98.816 219.932 99.328 219.436 100C218.94 100.672 218.612 101.464 218.452 102.376C218.388 102.68 218.356 103.008 218.356 103.36C218.356 104.432 218.668 105.28 219.292 105.904C219.932 106.528 220.724 106.84 221.668 106.84C222.372 106.84 223.06 106.664 223.732 106.312C224.42 105.944 225.012 105.416 225.508 104.728C226.004 104.04 226.332 103.24 226.492 102.328ZM236.59 109.216C235.47 109.216 234.486 108.984 233.638 108.52C232.79 108.056 232.126 107.4 231.646 106.552C231.182 105.704 230.95 104.736 230.95 103.648C230.95 102.16 231.294 100.8 231.982 99.568C232.686 98.336 233.646 97.36 234.862 96.64C236.094 95.92 237.462 95.56 238.966 95.56C240.086 95.56 241.078 95.8 241.942 96.28C242.806 96.744 243.478 97.4 243.958 98.248C244.454 99.08 244.702 100.048 244.702 101.152C244.702 102.64 244.342 104 243.622 105.232C242.902 106.464 241.926 107.44 240.694 108.16C239.462 108.864 238.094 109.216 236.59 109.216ZM236.926 106.912C237.838 106.912 238.67 106.656 239.422 106.144C240.19 105.616 240.79 104.928 241.222 104.08C241.654 103.216 241.87 102.296 241.87 101.32C241.87 100.216 241.558 99.368 240.934 98.776C240.31 98.168 239.526 97.864 238.582 97.864C237.654 97.864 236.822 98.128 236.086 98.656C235.366 99.168 234.798 99.864 234.382 100.744C233.982 101.608 233.782 102.536 233.782 103.528C233.782 104.6 234.07 105.432 234.646 106.024C235.238 106.616 235.998 106.912 236.926 106.912ZM250.983 109.216C250.071 109.216 249.239 109.064 248.487 108.76C247.735 108.44 247.143 108 246.711 107.44C246.279 106.864 246.063 106.208 246.063 105.472C246.063 105.344 246.079 105.168 246.111 104.944H248.775C248.711 105.552 248.895 106.056 249.327 106.456C249.759 106.856 250.367 107.056 251.151 107.056C251.919 107.056 252.551 106.92 253.047 106.648C253.543 106.376 253.791 105.976 253.791 105.448C253.791 105 253.583 104.64 253.167 104.368C252.767 104.096 252.119 103.792 251.223 103.456C250.375 103.12 249.687 102.808 249.159 102.52C248.631 102.232 248.175 101.84 247.791 101.344C247.407 100.832 247.215 100.2 247.215 99.448C247.215 98.68 247.431 98.008 247.863 97.432C248.311 96.84 248.927 96.384 249.711 96.064C250.511 95.728 251.423 95.56 252.447 95.56C253.375 95.56 254.199 95.72 254.919 96.04C255.655 96.344 256.223 96.784 256.623 97.36C257.039 97.92 257.247 98.568 257.247 99.304C257.247 99.528 257.239 99.696 257.223 99.808H254.631C254.695 99.184 254.511 98.68 254.079 98.296C253.663 97.912 253.063 97.72 252.279 97.72C251.591 97.72 251.031 97.864 250.599 98.152C250.183 98.44 249.975 98.832 249.975 99.328C249.975 99.824 250.191 100.224 250.623 100.528C251.055 100.816 251.719 101.136 252.615 101.488C253.431 101.808 254.095 102.112 254.607 102.4C255.119 102.688 255.559 103.072 255.927 103.552C256.295 104.032 256.479 104.632 256.479 105.352C256.479 106.136 256.239 106.824 255.759 107.416C255.295 107.992 254.647 108.44 253.815 108.76C252.983 109.064 252.039 109.216 250.983 109.216ZM272.006 91.24L268.862 109H266.126L269.27 91.24H272.006ZM276.486 94.024C276.054 94.024 275.702 93.888 275.43 93.616C275.158 93.344 275.022 93 275.022 92.584C275.022 92.024 275.23 91.544 275.646 91.144C276.078 90.728 276.566 90.52 277.11 90.52C277.542 90.52 277.886 90.656 278.142 90.928C278.414 91.2 278.55 91.544 278.55 91.96C278.55 92.52 278.342 93.008 277.926 93.424C277.51 93.824 277.03 94.024 276.486 94.024ZM277.518 95.776L275.19 109H272.454L274.782 95.776H277.518ZM297.166 95.56C298.558 95.56 299.67 95.936 300.502 96.688C301.334 97.44 301.75 98.504 301.75 99.88C301.75 100.248 301.71 100.688 301.63 101.2L300.238 109H297.526L298.846 101.608C298.91 101.16 298.942 100.84 298.942 100.648C298.942 99.768 298.694 99.096 298.198 98.632C297.718 98.168 297.046 97.936 296.182 97.936C295.142 97.936 294.262 98.256 293.542 98.896C292.838 99.52 292.39 100.424 292.198 101.608L290.878 109H288.166L289.486 101.608C289.55 101.16 289.582 100.84 289.582 100.648C289.582 99.768 289.334 99.096 288.838 98.632C288.358 98.168 287.686 97.936 286.822 97.936C285.782 97.936 284.902 98.256 284.182 98.896C283.478 99.52 283.03 100.424 282.838 101.608V101.536L281.518 109H278.782L281.11 95.776H283.846L283.582 97.312C284.11 96.768 284.742 96.344 285.478 96.04C286.23 95.72 287.006 95.56 287.806 95.56C288.862 95.56 289.766 95.784 290.518 96.232C291.286 96.68 291.822 97.328 292.126 98.176C292.654 97.376 293.382 96.744 294.31 96.28C295.238 95.8 296.19 95.56 297.166 95.56ZM307.752 94.024C307.32 94.024 306.968 93.888 306.696 93.616C306.424 93.344 306.288 93 306.288 92.584C306.288 92.024 306.496 91.544 306.912 91.144C307.344 90.728 307.832 90.52 308.376 90.52C308.808 90.52 309.152 90.656 309.408 90.928C309.68 91.2 309.816 91.544 309.816 91.96C309.816 92.52 309.608 93.008 309.192 93.424C308.776 93.824 308.296 94.024 307.752 94.024ZM308.784 95.776L306.456 109H303.72L306.048 95.776H308.784ZM313.888 105.328C313.856 105.552 313.84 105.696 313.84 105.76C313.84 106.096 313.944 106.344 314.152 106.504C314.36 106.648 314.704 106.72 315.184 106.72H316.864L316.456 109H314.296C313.24 109 312.432 108.792 311.872 108.376C311.312 107.944 311.032 107.264 311.032 106.336C311.032 105.984 311.064 105.648 311.128 105.328L312.424 98.008H310.864L311.248 95.776H312.832L313.408 92.488H316.168L315.592 95.776H318.784L318.4 98.008H315.184L313.888 105.328ZM319.242 102.328C319.482 101 319.962 99.824 320.682 98.8C321.418 97.776 322.314 96.984 323.37 96.424C324.426 95.848 325.53 95.56 326.682 95.56C327.722 95.56 328.594 95.768 329.298 96.184C330.002 96.584 330.53 97.088 330.882 97.696L331.218 95.776H333.978L331.65 109H328.89L329.25 107.032C328.674 107.656 327.946 108.176 327.066 108.592C326.202 109.008 325.258 109.216 324.234 109.216C323.242 109.216 322.354 108.992 321.57 108.544C320.802 108.096 320.194 107.464 319.746 106.648C319.314 105.816 319.098 104.864 319.098 103.792C319.098 103.312 319.146 102.824 319.242 102.328ZM330.066 102.376C330.13 102.072 330.162 101.744 330.162 101.392C330.162 100.32 329.842 99.48 329.202 98.872C328.578 98.248 327.794 97.936 326.85 97.936C326.146 97.936 325.458 98.112 324.786 98.464C324.114 98.8 323.53 99.304 323.034 99.976C322.538 100.632 322.21 101.416 322.05 102.328C321.986 102.632 321.954 102.96 321.954 103.312C321.954 104.4 322.266 105.264 322.89 105.904C323.53 106.528 324.322 106.84 325.266 106.84C325.97 106.84 326.658 106.664 327.33 106.312C328.002 105.96 328.586 105.448 329.082 104.776C329.578 104.088 329.906 103.288 330.066 102.376ZM335.507 102.328C335.747 101 336.227 99.824 336.947 98.8C337.683 97.776 338.579 96.984 339.635 96.424C340.691 95.848 341.803 95.56 342.971 95.56C343.835 95.56 344.651 95.752 345.419 96.136C346.187 96.504 346.771 97 347.171 97.624L348.299 91.24H351.059L347.915 109H345.155L345.515 107.008C344.939 107.664 344.219 108.2 343.355 108.616C342.507 109.016 341.571 109.216 340.547 109.216C339.539 109.216 338.643 108.992 337.859 108.544C337.075 108.096 336.459 107.464 336.011 106.648C335.579 105.816 335.363 104.864 335.363 103.792C335.363 103.312 335.411 102.824 335.507 102.328ZM346.331 102.376C346.395 102.072 346.427 101.744 346.427 101.392C346.427 100.32 346.107 99.48 345.467 98.872C344.843 98.248 344.059 97.936 343.115 97.936C342.411 97.936 341.723 98.112 341.051 98.464C340.379 98.8 339.795 99.304 339.299 99.976C338.803 100.632 338.475 101.416 338.315 102.328C338.251 102.632 338.219 102.96 338.219 103.312C338.219 104.4 338.531 105.264 339.155 105.904C339.795 106.528 340.587 106.84 341.531 106.84C342.235 106.84 342.923 106.664 343.595 106.312C344.267 105.96 344.851 105.448 345.347 104.776C345.843 104.088 346.171 103.288 346.331 102.376ZM357.293 109.216C356.173 109.216 355.189 108.984 354.341 108.52C353.493 108.056 352.829 107.4 352.349 106.552C351.885 105.704 351.653 104.736 351.653 103.648C351.653 102.16 351.997 100.8 352.685 99.568C353.389 98.336 354.349 97.36 355.565 96.64C356.797 95.92 358.165 95.56 359.669 95.56C360.789 95.56 361.781 95.8 362.645 96.28C363.509 96.744 364.181 97.4 364.661 98.248C365.157 99.08 365.405 100.048 365.405 101.152C365.405 102.64 365.045 104 364.325 105.232C363.605 106.464 362.629 107.44 361.397 108.16C360.165 108.864 358.797 109.216 357.293 109.216ZM357.629 106.912C358.541 106.912 359.373 106.656 360.125 106.144C360.893 105.616 361.493 104.928 361.925 104.08C362.357 103.216 362.573 102.296 362.573 101.32C362.573 100.216 362.261 99.368 361.637 98.776C361.013 98.168 360.229 97.864 359.285 97.864C358.357 97.864 357.525 98.128 356.789 98.656C356.069 99.168 355.501 99.864 355.085 100.744C354.685 101.608 354.485 102.536 354.485 103.528C354.485 104.6 354.773 105.432 355.349 106.024C355.941 106.616 356.701 106.912 357.629 106.912ZM371.686 109.216C370.774 109.216 369.942 109.064 369.19 108.76C368.438 108.44 367.846 108 367.414 107.44C366.982 106.864 366.766 106.208 366.766 105.472C366.766 105.344 366.782 105.168 366.814 104.944H369.478C369.414 105.552 369.598 106.056 370.03 106.456C370.462 106.856 371.07 107.056 371.854 107.056C372.622 107.056 373.254 106.92 373.75 106.648C374.246 106.376 374.494 105.976 374.494 105.448C374.494 105 374.286 104.64 373.87 104.368C373.47 104.096 372.822 103.792 371.926 103.456C371.078 103.12 370.39 102.808 369.862 102.52C369.334 102.232 368.878 101.84 368.494 101.344C368.11 100.832 367.918 100.2 367.918 99.448C367.918 98.68 368.134 98.008 368.566 97.432C369.014 96.84 369.63 96.384 370.414 96.064C371.214 95.728 372.126 95.56 373.15 95.56C374.078 95.56 374.902 95.72 375.622 96.04C376.358 96.344 376.926 96.784 377.326 97.36C377.742 97.92 377.95 98.568 377.95 99.304C377.95 99.528 377.942 99.696 377.926 99.808H375.334C375.398 99.184 375.214 98.68 374.782 98.296C374.366 97.912 373.766 97.72 372.982 97.72C372.294 97.72 371.734 97.864 371.302 98.152C370.886 98.44 370.678 98.832 370.678 99.328C370.678 99.824 370.894 100.224 371.326 100.528C371.758 100.816 372.422 101.136 373.318 101.488C374.134 101.808 374.798 102.112 375.31 102.4C375.822 102.688 376.262 103.072 376.63 103.552C376.998 104.032 377.182 104.632 377.182 105.352C377.182 106.136 376.942 106.824 376.462 107.416C375.998 107.992 375.35 108.44 374.518 108.76C373.686 109.064 372.742 109.216 371.686 109.216Z" fill="#A673F7"/>
<rect x="1.5" y="1.5" width="548" height="133" rx="26.5" stroke="#C1FFD7" stroke-width="3"/>
</svg>
