<svg width="577" height="244" viewBox="0 0 577 244" fill="none" xmlns="http://www.w3.org/2000/svg">
<g filter="url(#filter0_d_2601_2)">
<path d="M533.171 224.75H29.9507C16.6507 224.75 5.90069 213.64 6.00069 200L7.23069 32.7104C7.28069 25.9804 9.96069 19.9104 14.2707 15.5004C14.2707 15.5004 20.1807 9.54043 31.0707 8.33043C47.3807 6.53043 240.971 5.73043 504.961 6.08043C522.331 21.6504 539.711 37.2304 557.081 52.8004C557.121 101.73 557.081 151.23 557.121 200.16C557.131 213.73 546.411 224.74 533.171 224.74V224.75Z" fill="url(#paint0_linear_2601_2)"/>
</g>
<path style="mix-blend-mode:darken" opacity="0.52" d="M502.031 55.4604L557.071 52.8104C539.141 36.9604 522.881 21.9404 504.951 6.09042L502.031 55.4604Z" fill="url(#paint1_linear_2601_2)"/>
<path d="M504.991 52.3404L557.071 52.8104C539.721 37.4704 522.331 21.6604 504.991 6.33041V52.3404Z" fill="url(#paint2_linear_2601_2)"/>
<path d="M107.896 112C105.233 112 103.261 111.206 101.981 109.619C100.7 108.031 100.06 105.906 100.06 103.243V67.4444C100.06 63.5522 101.11 60.6842 103.21 58.8406C105.361 56.9969 107.921 56.075 110.892 56.075C113.709 56.075 116.09 56.9969 118.036 58.8406C120.033 60.6842 121.493 63.6034 122.415 67.598L128.407 93.64H130.404L136.396 67.598C137.318 63.6034 138.778 60.6842 140.775 58.8406C142.823 56.9969 145.256 56.075 148.073 56.075C151.043 56.075 153.578 56.9969 155.678 58.8406C157.829 60.6842 158.904 63.5522 158.904 67.4444V103.243C158.904 105.906 158.239 108.031 156.907 109.619C155.627 111.206 153.655 112 150.992 112C148.431 112 146.46 111.206 145.077 109.619C143.694 108.031 143.003 105.906 143.003 103.243V82.5779C143.003 82.0658 142.926 81.6049 142.772 81.1952C142.67 80.7343 142.337 80.5038 141.773 80.5038C141.313 80.5038 140.98 80.7343 140.775 81.1952C140.57 81.6049 140.416 82.0658 140.314 82.5779L137.395 101.937C137.036 104.036 136.601 105.854 136.089 107.391C135.628 108.876 134.885 110.028 133.861 110.848C132.837 111.616 131.352 112 129.405 112C127.511 112 126.025 111.616 124.95 110.848C123.926 110.028 123.157 108.876 122.645 107.391C122.184 105.854 121.8 104.036 121.493 101.937L118.497 82.5779C118.446 82.0658 118.318 81.6049 118.113 81.1952C117.908 80.7343 117.55 80.5038 117.037 80.5038C116.525 80.5038 116.192 80.7343 116.039 81.1952C115.885 81.6049 115.808 82.0658 115.808 82.5779V103.243C115.808 105.906 115.117 108.031 113.734 109.619C112.403 111.206 110.457 112 107.896 112ZM174.812 112C171.022 112 168.052 110.976 165.901 108.927C163.801 106.879 162.751 104.011 162.751 100.323C162.751 96.636 163.98 93.9729 166.439 92.3341C168.897 90.644 172.047 89.799 175.888 89.799C178.141 89.799 180.189 89.9527 182.033 90.2599C183.877 90.5672 185.541 91.0025 187.026 91.5659H187.257V90.4136C187.257 89.2357 186.822 88.3138 185.951 87.6481C185.08 86.9311 183.979 86.5982 182.648 86.6494C181.367 86.6494 180.266 86.7262 179.344 86.8799C178.474 87.0335 177.373 87.2896 176.041 87.6481C173.583 88.2626 171.458 88.2114 169.665 87.4944C167.873 86.7774 166.644 85.3691 165.978 83.2693C165.363 81.0671 165.491 79.2235 166.362 77.7383C167.284 76.2531 168.666 75.1008 170.51 74.2814C172.098 73.5132 173.865 72.873 175.811 72.3609C177.808 71.8487 179.959 71.5927 182.264 71.5927C188.973 71.5927 193.889 73.2315 197.013 76.5092C200.188 79.7356 201.776 85.1642 201.776 92.795V104.702C201.776 106.802 201.136 108.543 199.855 109.926C198.575 111.309 196.808 112 194.555 112C192.097 112 190.253 111.309 189.024 109.926C187.846 108.543 187.257 106.853 187.257 104.856V103.089H185.721C185.721 104.42 185.464 105.778 184.952 107.16C184.491 108.543 183.493 109.695 181.956 110.617C180.471 111.539 178.09 112 174.812 112ZM175.58 95.1764C175.58 96.047 175.888 96.6616 176.502 97.0201C177.168 97.3786 178.576 97.5578 180.727 97.5578C182.673 97.5578 184.03 97.3786 184.799 97.0201C185.567 96.6616 185.951 96.047 185.951 95.1764C185.951 94.357 185.567 93.7937 184.799 93.4864C184.03 93.1279 182.673 92.9486 180.727 92.9486C178.576 92.9486 177.168 93.1279 176.502 93.4864C175.888 93.7937 175.58 94.357 175.58 95.1764ZM213.359 112C210.952 112 209.083 111.309 207.751 109.926C206.42 108.543 205.754 106.802 205.754 104.702V79.5051C205.754 77.303 206.42 75.4849 207.751 74.0509C209.083 72.5657 210.952 71.8231 213.359 71.8231C215.766 71.8231 217.61 72.5657 218.89 74.0509C220.17 75.4849 220.81 77.2518 220.81 79.3515V80.9647H222.27C222.475 78.2504 223.499 76.0226 225.343 74.2814C227.187 72.5401 229.363 71.6695 231.873 71.6695C234.382 71.6695 236.354 72.4377 237.788 73.9741C239.273 75.5105 240.015 77.559 240.015 80.1197C240.015 82.5267 239.324 84.524 237.941 86.1117C236.559 87.6993 234.792 88.4931 232.641 88.4931C230.848 88.4931 229.337 88.0834 228.108 87.264C226.93 86.3933 226.06 85.3947 225.496 84.268C223.858 84.0631 222.654 84.2424 221.886 84.8057C221.169 85.3179 220.81 86.3677 220.81 87.9553V104.702C220.81 106.802 220.17 108.543 218.89 109.926C217.61 111.309 215.766 112 213.359 112ZM250.188 112C247.935 112 246.142 111.334 244.811 110.003C243.479 108.62 242.813 106.93 242.813 104.933V60.4538C242.813 58.3028 243.454 56.4847 244.734 54.9996C246.065 53.5144 247.935 52.7718 250.342 52.7718C252.698 52.7718 254.464 53.5144 255.642 54.9996C256.871 56.4847 257.486 58.3284 257.486 60.5306V83.8071L257.716 83.8839C257.973 81.7329 258.638 79.7612 259.714 77.9687C260.789 76.1251 262.3 74.6399 264.246 73.5132C266.192 72.3865 268.574 71.8231 271.39 71.8231C275.18 71.8231 278.227 72.873 280.532 74.9728C282.837 77.0725 283.989 79.9405 283.989 83.5766C283.989 86.0861 283.477 88.0834 282.453 89.5686C281.479 91.0025 280.148 92.0012 278.458 92.5645C276.768 93.1279 274.899 93.384 272.85 93.3327V94.6387C277.408 94.6387 280.634 95.5605 282.529 97.4042C284.475 99.1967 285.448 101.476 285.448 104.241C285.448 106.802 284.68 108.774 283.144 110.156C281.607 111.539 279.764 112.205 277.613 112.154C275.257 112.102 273.311 111.411 271.775 110.079C270.238 108.748 268.958 106.955 267.934 104.702L264.63 97.7115C263.965 96.3287 263.094 95.3301 262.018 94.7155C260.994 94.1009 259.483 93.8705 257.486 94.0241V104.933C257.486 106.93 256.82 108.62 255.489 110.003C254.208 111.334 252.442 112 250.188 112ZM259.099 88.8004C259.099 89.5173 259.458 90.0551 260.175 90.4136C260.943 90.7209 262.505 90.8745 264.861 90.8745C267.165 90.8745 268.702 90.7209 269.47 90.4136C270.238 90.1063 270.622 89.5686 270.622 88.8004C270.622 88.0834 270.238 87.5456 269.47 87.1871C268.702 86.8286 267.191 86.6494 264.938 86.6494C262.531 86.6494 260.943 86.8286 260.175 87.1871C259.458 87.5456 259.099 88.0834 259.099 88.8004ZM286.768 92.0268C286.768 87.9809 287.561 84.4216 289.149 81.3488C290.788 78.276 293.092 75.869 296.063 74.1277C299.084 72.3865 302.669 71.5159 306.818 71.5159C310.044 71.5159 312.938 72.1048 315.498 73.2827C318.11 74.4606 320.159 76.0482 321.644 78.0456C323.129 79.9917 323.872 82.1426 323.872 84.4984C323.872 86.9567 323.155 88.6979 321.721 89.7222C320.287 90.7465 318.161 91.2586 315.345 91.2586H299.212C299.212 92.5901 299.725 93.6912 300.749 94.5619C301.824 95.4325 303.617 95.8678 306.126 95.8678C307.407 95.8678 308.585 95.7398 309.66 95.4837C310.787 95.2276 311.913 94.9972 313.04 94.7923C314.218 94.5363 315.524 94.4082 316.958 94.4082C319.006 94.4082 320.696 95.1508 322.028 96.636C323.36 98.07 324.025 100.067 324.025 102.628C324.025 105.65 322.463 108.005 319.339 109.695C316.267 111.385 312.221 112.23 307.202 112.23C303.668 112.23 300.339 111.539 297.215 110.156C294.142 108.774 291.633 106.597 289.687 103.627C287.741 100.605 286.768 96.7384 286.768 92.0268ZM311.657 88.7235C312.426 88.7235 312.682 88.365 312.426 87.6481C312.221 86.9311 311.606 86.1885 310.582 85.4203C309.558 84.6521 308.072 84.268 306.126 84.268C303.873 84.268 302.183 84.7545 301.056 85.7276C299.981 86.7006 299.443 87.6993 299.443 88.7235H311.657ZM348.288 112.23C345.574 112.23 343.115 111.616 340.913 110.387C338.762 109.158 337.072 107.416 335.843 105.163C334.614 102.858 333.999 100.17 333.999 97.0969V83.5766L331.157 83.9607C329.621 84.1656 328.263 83.6278 327.086 82.3475C325.908 81.0671 325.319 79.4539 325.319 77.5078C325.319 75.5617 325.908 73.9741 327.086 72.745C328.263 71.4646 329.621 70.9269 331.157 71.1318L333.999 71.5159L333.923 66.2921C333.871 64.2436 334.46 62.6303 335.689 61.4524C336.918 60.2233 338.711 59.6088 341.067 59.6088C343.423 59.6088 345.241 60.2233 346.521 61.4524C347.801 62.6303 348.39 64.2436 348.288 66.2921L348.134 71.5159L352.206 70.9781C354.971 70.5684 357.071 71.0805 358.505 72.5145C359.939 73.8973 360.656 75.5617 360.656 77.5078C360.656 79.4539 359.939 81.144 358.505 82.5779C357.122 83.9607 355.099 84.4728 352.436 84.1143L348.134 83.5766V95.0228C348.134 95.6886 348.365 96.3031 348.826 96.8665C349.287 97.3786 349.85 97.5322 350.516 97.3274C351.284 97.1225 352.078 96.6872 352.897 96.0214C353.768 95.3557 354.869 95.0228 356.2 95.0228C358.198 95.0228 359.734 95.7398 360.81 97.1737C361.885 98.6077 362.423 100.375 362.423 102.474C362.423 104.113 361.834 105.701 360.656 107.237C359.529 108.722 357.916 109.926 355.816 110.848C353.716 111.77 351.207 112.23 348.288 112.23ZM364.788 62.912C364.788 60.7098 365.454 58.943 366.785 57.6114C368.168 56.2287 370.063 55.5373 372.47 55.5373C375.031 55.5373 376.926 56.2031 378.155 57.5346C379.435 58.8662 380.075 60.633 380.075 62.8352C380.075 64.9862 379.435 66.7274 378.155 68.059C376.926 69.3393 375.031 69.9795 372.47 69.9795C369.96 69.9795 368.04 69.3393 366.708 68.059C365.428 66.7274 364.788 65.0118 364.788 62.912ZM372.47 112C370.063 112 368.27 111.334 367.093 110.003C365.915 108.671 365.326 107.007 365.326 105.009V78.7369C365.326 76.5348 365.915 74.7935 367.093 73.5132C368.27 72.2328 370.063 71.5927 372.47 71.5927C374.877 71.5927 376.669 72.2328 377.847 73.5132C379.076 74.7935 379.691 76.4836 379.691 78.5833V105.009C379.691 107.007 379.051 108.671 377.771 110.003C376.541 111.334 374.775 112 372.47 112ZM391.377 112C389.123 112 387.305 111.334 385.922 110.003C384.591 108.62 383.925 106.93 383.925 104.933V79.5051C383.925 77.3542 384.565 75.5361 385.846 74.0509C387.126 72.5657 388.97 71.8231 391.377 71.8231C393.732 71.8231 395.525 72.5657 396.754 74.0509C397.983 75.5361 398.598 77.4054 398.598 79.6588V83.4998H399.981C399.981 80.5806 400.493 78.276 401.517 76.586C402.592 74.8959 403.95 73.6924 405.588 72.9754C407.227 72.2072 408.866 71.8231 410.505 71.8231C414.448 71.8231 417.342 73.2571 419.186 76.1251C421.029 78.9418 421.951 82.962 421.951 88.1858V104.933C421.951 106.93 421.285 108.62 419.954 110.003C418.622 111.334 416.83 112 414.576 112C412.272 112 410.428 111.334 409.045 110.003C407.714 108.62 407.048 106.93 407.048 104.933V91.3354C407.048 89.4917 406.689 88.0578 405.972 87.0335C405.307 86.0092 404.308 85.4971 402.976 85.4971C401.44 85.4971 400.313 86.0604 399.596 87.1871C398.931 88.3138 398.598 89.7478 398.598 91.4891V104.933C398.598 106.93 397.958 108.62 396.677 110.003C395.397 111.334 393.63 112 391.377 112ZM443.835 127.825C440.711 127.825 438.048 127.492 435.846 126.826C433.695 126.16 431.621 125.136 429.623 123.753C427.882 122.524 426.653 120.809 425.936 118.607C425.219 116.404 425.578 114.177 427.012 111.923C427.933 110.54 428.958 109.593 430.084 109.081C431.262 108.569 432.389 108.364 433.464 108.466C434.591 108.517 435.564 108.748 436.384 109.158C438.176 110.028 439.559 110.668 440.532 111.078C441.556 111.437 442.708 111.616 443.989 111.616C445.884 111.616 447.471 110.95 448.752 109.619C450.083 108.287 450.749 106.418 450.749 104.011V97.7883H449.366C449.008 100.503 447.958 102.654 446.217 104.241C444.527 105.778 442.196 106.546 439.226 106.546C436.973 106.546 434.77 105.982 432.619 104.856C430.468 103.729 428.702 101.937 427.319 99.4783C425.936 97.0201 425.245 93.7681 425.245 89.7222C425.245 83.7815 426.551 79.3515 429.163 76.4323C431.774 73.5132 435.154 72.0536 439.303 72.0536C442.171 72.0536 444.629 73.0267 446.677 74.9728C448.726 76.8677 449.75 79.5307 449.75 82.962L449.981 82.8852V78.5833C449.981 76.7908 450.544 75.2288 451.671 73.8973C452.849 72.5145 454.667 71.8231 457.125 71.8231C459.737 71.8231 461.606 72.5145 462.733 73.8973C463.911 75.2288 464.5 76.7908 464.5 78.5833L464.577 102.782C464.628 108.108 463.962 112.64 462.579 116.379C461.248 120.117 459.045 122.96 455.973 124.906C452.951 126.852 448.905 127.825 443.835 127.825ZM438.15 88.4163C438.15 91.1818 439.994 92.5645 443.681 92.5645C446.089 92.5645 447.779 92.2317 448.752 91.5659C449.725 90.9001 450.211 89.8502 450.211 88.4163C450.211 86.9311 449.699 85.9068 448.675 85.3435C447.702 84.7801 446.012 84.4984 443.605 84.4984C441.863 84.4984 440.506 84.7801 439.533 85.3435C438.611 85.9068 438.15 86.9311 438.15 88.4163ZM168.888 172.255V181.857C168.888 184.52 168.171 186.543 166.737 187.926C165.355 189.309 163.511 190 161.206 190H161.129C158.62 190 156.623 189.309 155.137 187.926C153.704 186.543 152.987 184.52 152.987 181.857V171.025C152.987 165.597 153.806 161.474 155.445 158.657C157.084 155.841 159.158 153.818 161.667 152.589L161.283 151.129H159.977C157.621 151.129 155.752 150.386 154.369 148.901C153.038 147.365 152.346 145.291 152.295 142.679C152.244 140.118 152.91 138.044 154.292 136.456C155.726 134.869 157.621 134.075 159.977 134.075H180.181C185.353 134.075 189.553 135.637 192.779 138.761C196.057 141.834 197.696 146.699 197.696 153.357C197.696 158.171 196.851 161.961 195.161 164.726C193.471 167.492 191.243 169.438 188.477 170.565C185.712 171.691 182.716 172.255 179.489 172.255H168.888ZM167.89 157.428C167.89 158.555 168.094 159.298 168.504 159.656C168.965 160.015 169.759 160.194 170.886 160.194H178.03C180.181 160.194 181.743 159.707 182.716 158.734C183.689 157.71 184.175 156.276 184.175 154.432C184.175 152.589 183.689 151.18 182.716 150.207C181.743 149.234 180.181 148.748 178.03 148.748H170.886C169.759 148.748 168.965 148.901 168.504 149.209C168.094 149.516 167.89 150.258 167.89 151.436V157.428ZM217.198 190.154C211.206 190.154 206.417 188.387 202.832 184.853C199.299 181.268 197.532 176.224 197.532 169.72C197.532 165.725 198.351 162.217 199.99 159.195C201.629 156.174 203.908 153.818 206.827 152.128C209.798 150.386 213.254 149.516 217.198 149.516C221.602 149.516 225.264 150.386 228.183 152.128C231.102 153.818 233.279 156.174 234.713 159.195C236.198 162.217 236.941 165.725 236.941 169.72C236.941 176.224 235.302 181.268 232.024 184.853C228.798 188.387 223.856 190.154 217.198 190.154ZM206.673 168.414C206.673 170.001 207.467 171.128 209.055 171.794C210.643 172.408 213.357 172.715 217.198 172.715C221.039 172.715 223.753 172.408 225.341 171.794C226.928 171.128 227.722 170.001 227.722 168.414C227.722 166.877 226.928 165.802 225.341 165.187C223.753 164.573 221.039 164.265 217.198 164.265C213.357 164.265 210.643 164.573 209.055 165.187C207.467 165.802 206.673 166.877 206.673 168.414ZM247.896 190C245.387 190 243.492 189.334 242.212 188.003C240.983 186.671 240.368 185.007 240.368 183.009V138.454C240.368 136.252 240.983 134.434 242.212 133C243.492 131.514 245.387 130.772 247.896 130.772C250.15 130.772 251.891 131.514 253.12 133C254.349 134.434 254.964 136.2 254.964 138.3V183.009C254.964 185.007 254.349 186.671 253.12 188.003C251.891 189.334 250.15 190 247.896 190ZM266.642 190C264.235 190 262.443 189.334 261.265 188.003C260.087 186.671 259.498 185.007 259.498 183.009V156.737C259.498 154.535 260.087 152.794 261.265 151.513C262.443 150.233 264.235 149.593 266.642 149.593C269.049 149.593 270.842 150.233 272.02 151.513C273.249 152.794 273.863 154.484 273.863 156.583V183.009C273.863 185.007 273.223 186.671 271.943 188.003C270.714 189.334 268.947 190 266.642 190ZM261.342 137.993C262.52 137.225 263.774 136.431 265.106 135.611C266.437 134.792 267.641 134.049 268.716 133.384C270.406 132.359 272.122 131.898 273.863 132.001C275.605 132.103 276.962 132.974 277.935 134.613C278.908 136.252 279.164 137.967 278.703 139.76C278.293 141.501 277.013 142.884 274.862 143.908C273.428 144.574 271.892 145.214 270.253 145.828C268.665 146.392 267.231 146.827 265.951 147.134C264.619 147.442 263.365 147.442 262.187 147.134C261.009 146.776 260.138 145.982 259.575 144.753C258.909 143.268 258.807 141.936 259.268 140.758C259.729 139.58 260.42 138.659 261.342 137.993ZM298.812 190.23C296.098 190.23 293.64 189.616 291.438 188.387C289.287 187.158 287.597 185.416 286.368 183.163C285.139 180.858 284.524 178.17 284.524 175.097V161.577L281.682 161.961C280.145 162.166 278.788 161.628 277.61 160.347C276.432 159.067 275.843 157.454 275.843 155.508C275.843 153.562 276.432 151.974 277.61 150.745C278.788 149.465 280.145 148.927 281.682 149.132L284.524 149.516L284.447 144.292C284.396 142.244 284.985 140.63 286.214 139.452C287.443 138.223 289.236 137.609 291.591 137.609C293.947 137.609 295.765 138.223 297.046 139.452C298.326 140.63 298.915 142.244 298.812 144.292L298.659 149.516L302.73 148.978C305.496 148.568 307.596 149.081 309.03 150.515C310.464 151.897 311.181 153.562 311.181 155.508C311.181 157.454 310.464 159.144 309.03 160.578C307.647 161.961 305.624 162.473 302.961 162.114L298.659 161.577V173.023C298.659 173.689 298.889 174.303 299.35 174.866C299.811 175.379 300.374 175.532 301.04 175.327C301.808 175.123 302.602 174.687 303.422 174.021C304.292 173.356 305.393 173.023 306.725 173.023C308.722 173.023 310.259 173.74 311.334 175.174C312.41 176.608 312.947 178.375 312.947 180.474C312.947 182.113 312.358 183.701 311.181 185.237C310.054 186.722 308.441 187.926 306.341 188.848C304.241 189.77 301.732 190.23 298.812 190.23ZM315.313 140.912C315.313 138.71 315.978 136.943 317.31 135.611C318.693 134.229 320.588 133.537 322.995 133.537C325.555 133.537 327.45 134.203 328.679 135.535C329.96 136.866 330.6 138.633 330.6 140.835C330.6 142.986 329.96 144.727 328.679 146.059C327.45 147.339 325.555 147.979 322.995 147.979C320.485 147.979 318.565 147.339 317.233 146.059C315.953 144.727 315.313 143.012 315.313 140.912ZM322.995 190C320.588 190 318.795 189.334 317.617 188.003C316.439 186.671 315.85 185.007 315.85 183.009V156.737C315.85 154.535 316.439 152.794 317.617 151.513C318.795 150.233 320.588 149.593 322.995 149.593C325.402 149.593 327.194 150.233 328.372 151.513C329.601 152.794 330.216 154.484 330.216 156.583V183.009C330.216 185.007 329.575 186.671 328.295 188.003C327.066 189.334 325.299 190 322.995 190ZM353.442 190.23C349.448 190.23 345.914 189.411 342.841 187.772C339.768 186.082 337.361 183.701 335.62 180.628C333.879 177.555 333.008 173.945 333.008 169.796C333.008 165.648 333.879 162.038 335.62 158.965C337.361 155.892 339.768 153.51 342.841 151.82C345.965 150.13 349.55 149.285 353.596 149.285C356.771 149.285 359.562 149.618 361.969 150.284C364.428 150.95 366.348 151.948 367.731 153.28C369.165 154.612 369.882 156.276 369.882 158.273C369.882 160.68 369.267 162.575 368.038 163.958C366.809 165.29 365.042 165.955 362.738 165.955C361.201 165.955 359.665 165.725 358.128 165.264C356.643 164.803 354.723 164.573 352.367 164.573C350.421 164.573 348.782 164.88 347.45 165.494C346.119 166.109 345.453 167.236 345.453 168.874C345.453 170.565 346.119 171.794 347.45 172.562C348.782 173.279 350.421 173.637 352.367 173.637C353.954 173.637 355.286 173.484 356.361 173.176C357.437 172.869 358.461 172.562 359.434 172.255C360.407 171.947 361.508 171.794 362.738 171.794C365.349 171.794 367.27 172.562 368.499 174.098C369.779 175.583 370.42 177.504 370.42 179.86C370.42 181.857 369.677 183.65 368.192 185.237C366.707 186.774 364.684 188.003 362.123 188.925C359.562 189.795 356.669 190.23 353.442 190.23ZM392.068 190.154C386.076 190.154 381.288 188.387 377.703 184.853C374.169 181.268 372.402 176.224 372.402 169.72C372.402 165.725 373.222 162.217 374.861 159.195C376.499 156.174 378.778 153.818 381.698 152.128C384.668 150.386 388.125 149.516 392.068 149.516C396.473 149.516 400.134 150.386 403.054 152.128C405.973 153.818 408.149 156.174 409.583 159.195C411.068 162.217 411.811 165.725 411.811 169.72C411.811 176.224 410.172 181.268 406.895 184.853C403.668 188.387 398.726 190.154 392.068 190.154ZM381.544 168.414C381.544 170.001 382.338 171.128 383.925 171.794C385.513 172.408 388.227 172.715 392.068 172.715C395.909 172.715 398.624 172.408 400.211 171.794C401.799 171.128 402.593 170.001 402.593 168.414C402.593 166.877 401.799 165.802 400.211 165.187C398.624 164.573 395.909 164.265 392.068 164.265C388.227 164.265 385.513 164.573 383.925 165.187C382.338 165.802 381.544 166.877 381.544 168.414Z" fill="black"/>
<defs>
<filter id="filter0_d_2601_2" x="0.62" y="0.62" width="575.681" height="243.31" filterUnits="userSpaceOnUse" color-interpolation-filters="sRGB">
<feFlood flood-opacity="0" result="BackgroundImageFix"/>
<feColorMatrix in="SourceAlpha" type="matrix" values="0 0 0 0 0 0 0 0 0 0 0 0 0 0 0 0 0 0 127 0" result="hardAlpha"/>
<feOffset dx="6.9" dy="6.9"/>
<feGaussianBlur stdDeviation="6.14"/>
<feColorMatrix type="matrix" values="0 0 0 0 0.298039 0 0 0 0 0.298039 0 0 0 0 0.298039 0 0 0 0.65 0"/>
<feBlend mode="normal" in2="BackgroundImageFix" result="effect1_dropShadow_2601_2"/>
<feBlend mode="normal" in="SourceGraphic" in2="effect1_dropShadow_2601_2" result="shape"/>
</filter>
<linearGradient id="paint0_linear_2601_2" x1="2.39787" y1="95.8026" x2="564.737" y2="137.493" gradientUnits="userSpaceOnUse">
<stop stop-color="#C1FFD7"/>
<stop offset="1" stop-color="#48E580"/>
</linearGradient>
<linearGradient id="paint1_linear_2601_2" x1="502.967" y1="30.729" x2="558.496" y2="35.2162" gradientUnits="userSpaceOnUse">
<stop stop-color="#C1FFD7"/>
<stop offset="1" stop-color="#48E580"/>
</linearGradient>
<linearGradient id="paint2_linear_2601_2" x1="503.141" y1="29.188" x2="558.621" y2="33.6712" gradientUnits="userSpaceOnUse">
<stop stop-color="#C1FFD7"/>
<stop offset="1" stop-color="#48E580"/>
</linearGradient>
</defs>
</svg>
