<svg width="435" height="107" viewBox="0 0 435 107" fill="none" xmlns="http://www.w3.org/2000/svg">
<path d="M162.414 23.72H138.374C136.734 23.72 135.334 24.91 135.074 26.54L125.354 88.18C125.184 89.27 125.934 90.3 127.024 90.47C127.124 90.49 127.234 90.49 127.334 90.49H138.814C140.464 90.49 141.864 89.29 142.114 87.67L144.734 71.05C144.984 69.43 146.384 68.23 148.034 68.23H155.644C171.474 68.23 180.614 60.57 183.004 45.38C184.084 38.74 183.054 33.52 179.944 29.86C176.524 25.85 170.464 23.72 162.424 23.72H162.414ZM165.184 46.23C163.874 54.85 157.284 54.85 150.904 54.85H147.274L149.814 38.74C149.964 37.77 150.804 37.05 151.794 37.05H153.454C157.794 37.05 161.894 37.05 164.004 39.52C165.264 41 165.654 43.19 165.174 46.22L165.184 46.23ZM234.264 45.95H222.754C221.764 45.95 220.934 46.67 220.774 47.64L220.264 50.86L219.464 49.69C216.974 46.07 211.414 44.86 205.874 44.86C193.154 44.86 182.294 54.49 180.174 68.01C179.074 74.75 180.634 81.2 184.464 85.69C187.974 89.82 192.994 91.55 198.964 91.55C209.214 91.55 214.894 84.96 214.894 84.96L214.384 88.16C214.214 89.25 214.954 90.28 216.044 90.45C216.144 90.47 216.254 90.47 216.354 90.48H226.724C228.374 90.48 229.774 89.28 230.024 87.66L236.244 48.26C236.414 47.17 235.674 46.15 234.594 45.97C234.494 45.95 234.384 45.94 234.274 45.94L234.264 45.95ZM218.214 68.36C217.104 74.94 211.884 79.35 205.224 79.35C201.884 79.35 199.214 78.28 197.494 76.25C195.794 74.23 195.144 71.36 195.684 68.16C196.724 61.64 202.024 57.08 208.584 57.08C211.854 57.08 214.514 58.17 216.264 60.22C218.014 62.29 218.714 65.18 218.214 68.36ZM295.564 45.95H283.994C282.884 45.95 281.854 46.5 281.224 47.42L265.274 70.92L258.514 48.34C258.084 46.93 256.784 45.96 255.304 45.96H243.934C242.824 45.96 241.924 46.85 241.924 47.96C241.924 48.18 241.964 48.4 242.034 48.61L254.774 86L242.794 102.91C242.154 103.81 242.364 105.06 243.264 105.7C243.604 105.94 244.004 106.07 244.424 106.07H255.974C257.064 106.07 258.094 105.54 258.714 104.64L297.184 49.11C297.814 48.2 297.594 46.95 296.684 46.32C296.344 46.09 295.954 45.96 295.544 45.96L295.564 45.95Z" fill="#253B80"/>
<path d="M333.854 23.72H309.814C308.174 23.72 306.774 24.92 306.514 26.54L296.794 88.18C296.624 89.27 297.364 90.3 298.454 90.47C298.554 90.49 298.664 90.49 298.764 90.49H311.104C312.254 90.49 313.234 89.65 313.414 88.51L316.174 71.04C316.424 69.42 317.824 68.22 319.474 68.22H327.084C342.924 68.22 352.054 60.56 354.444 45.37C355.524 38.73 354.484 33.51 351.374 29.85C347.964 25.84 341.904 23.71 333.864 23.71L333.854 23.72ZM336.634 46.23C335.324 54.85 328.734 54.85 322.354 54.85H318.734L321.284 38.74C321.434 37.77 322.274 37.05 323.264 37.05H324.924C329.264 37.05 333.364 37.05 335.474 39.52C336.734 41 337.114 43.19 336.634 46.22V46.23ZM405.704 45.95H394.204C393.214 45.95 392.374 46.67 392.224 47.64L391.714 50.86L390.904 49.69C388.414 46.07 382.854 44.86 377.314 44.86C364.594 44.86 353.734 54.49 351.614 68.01C350.514 74.75 352.074 81.2 355.894 85.69C359.404 89.82 364.424 91.55 370.394 91.55C380.644 91.55 386.324 84.96 386.324 84.96L385.814 88.16C385.644 89.25 386.384 90.28 387.474 90.45C387.584 90.47 387.684 90.48 387.794 90.48H398.154C399.794 90.48 401.194 89.28 401.454 87.66L407.674 48.26C407.844 47.16 407.094 46.14 405.994 45.97C405.894 45.95 405.794 45.95 405.684 45.95H405.704ZM389.664 68.36C388.564 74.94 383.334 79.35 376.674 79.35C373.334 79.35 370.664 78.28 368.944 76.25C367.244 74.23 366.604 71.36 367.134 68.16C368.174 61.64 373.474 57.08 380.034 57.08C383.304 57.08 385.964 58.17 387.714 60.22C389.474 62.29 390.174 65.18 389.664 68.36ZM419.274 25.41L409.404 88.17C409.234 89.26 409.974 90.29 411.064 90.46C411.164 90.48 411.274 90.48 411.374 90.48H421.294C422.944 90.48 424.344 89.29 424.594 87.66L434.324 26.03C434.494 24.94 433.754 23.91 432.654 23.74C432.554 23.72 432.444 23.72 432.344 23.72H421.234C420.254 23.72 419.414 24.44 419.254 25.41H419.274Z" fill="#179BD7"/>
<path d="M25.5341 102.47L27.3741 90.7901L23.2841 90.7001H3.72412L17.3141 4.5401C17.3941 4.0001 17.8641 3.6001 18.4141 3.6001H51.3841C62.3241 3.6001 69.8841 5.8801 73.8241 10.3701C75.6741 12.4801 76.8541 14.6801 77.4241 17.1101C78.0241 19.6501 78.0341 22.6901 77.4441 26.4001L77.4041 26.6701V29.0501L79.2541 30.1001C80.6641 30.8201 81.9341 31.7801 82.9941 32.9501C84.5741 34.7501 85.5941 37.0401 86.0341 39.7601C86.4841 42.5501 86.3341 45.8801 85.6041 49.6401C84.7641 53.9701 83.3941 57.7401 81.5541 60.8301C79.9341 63.5901 77.7441 65.9901 75.1441 67.8601C72.6941 69.6001 69.7941 70.9101 66.5041 71.7601C63.3241 72.5901 59.6941 73.0101 55.7041 73.0101H53.1341C51.3041 73.0101 49.5141 73.6701 48.1141 74.8601C46.7141 76.0601 45.7941 77.7101 45.5041 79.5301L45.3141 80.5801L42.0641 101.16L41.9141 101.92C41.8741 102.16 41.8041 102.28 41.7141 102.36C41.6141 102.44 41.5041 102.48 41.3741 102.48H25.5341V102.47Z" fill="#253B80"/>
<path d="M81.0041 26.9499C80.9041 27.5799 80.7941 28.2199 80.6641 28.8799C76.3141 51.1999 61.4441 58.9099 42.4441 58.9099H32.7741C30.4541 58.9099 28.4941 60.5999 28.1341 62.8899L23.1841 94.2999L21.7841 103.2C21.5741 104.55 22.4941 105.82 23.8441 106.03C23.9741 106.05 24.1041 106.06 24.2341 106.06H41.3941C43.4241 106.06 45.1541 104.58 45.4741 102.58L45.6441 101.71L48.8741 81.2099L49.0841 80.0899C49.4041 78.0799 51.1341 76.5999 53.1641 76.5999H55.7341C72.3541 76.5999 85.3641 69.8499 89.1641 50.3199C90.7541 42.1599 89.9341 35.3499 85.7241 30.5599C84.3941 29.0799 82.8041 27.8499 81.0241 26.9399L81.0041 26.9499Z" fill="#179BD7"/>
<path d="M76.4541 25.1299C75.0641 24.7299 73.6542 24.4099 72.2242 24.1899C69.4042 23.7599 66.5541 23.5499 63.6941 23.5699H37.8541C35.8241 23.5699 34.0941 25.0499 33.7841 27.0599L28.2841 61.8799L28.1241 62.8999C28.4741 60.6099 30.4541 58.9199 32.7641 58.9199H42.4341C61.4341 58.9199 76.3042 51.2099 80.6542 28.8899C80.7842 28.2299 80.8941 27.5899 80.9941 26.9599C79.8441 26.3599 78.6541 25.8499 77.4241 25.4499C77.1041 25.3399 76.7741 25.2399 76.4541 25.1399V25.1299Z" fill="#222D65"/>
<path d="M33.7842 27.06C34.0942 25.05 35.8242 23.57 37.8542 23.58H63.6942C66.7542 23.58 69.6142 23.78 72.2242 24.2C73.9842 24.48 75.7342 24.89 77.4342 25.44C78.7142 25.87 79.9042 26.37 81.0042 26.95C82.2942 18.7 80.9942 13.08 76.5342 8C71.6142 2.4 62.7442 0 51.3842 0H18.4142C16.0942 0 14.1142 1.69 13.7542 3.98L0.0341531 91.02C-0.205847 92.57 0.844153 94.02 2.39415 94.26C2.54415 94.28 2.68415 94.29 2.83415 94.29H23.1842L28.2942 61.87L33.7942 27.05L33.7842 27.06Z" fill="#253B80"/>
</svg>
