<svg width="110" height="110" viewBox="0 0 110 110" fill="none" xmlns="http://www.w3.org/2000/svg">
<g filter="url(#filter0_d_2601_4)">
<path d="M49.94 96.88C75.8643 96.88 96.88 75.8643 96.88 49.94C96.88 24.0158 75.8643 3 49.94 3C24.0158 3 3 24.0158 3 49.94C3 75.8643 24.0158 96.88 49.94 96.88Z" fill="#A673F7"/>
<path d="M67.32 30.4001C68.52 30.4001 69.49 29.4301 69.49 28.2301C69.49 27.0301 68.52 26.0601 67.32 26.0601H32.57C31.37 26.0601 30.4 27.0301 30.4 28.2301C30.4 29.4301 31.37 30.4001 32.57 30.4001H34.85C35.17 34.3901 36.46 42.8901 41.79 47.7701C36.18 53.2201 35.03 64.5701 34.81 69.4901H32.58C31.38 69.4901 30.41 70.4601 30.41 71.6601C30.41 72.8601 31.38 73.8301 32.58 73.8301H67.33C68.53 73.8301 69.5 72.8601 69.5 71.6601C69.5 70.4601 68.53 69.4901 67.33 69.4901H65.1C64.87 64.5701 63.73 53.2301 58.12 47.7701C63.44 42.8801 64.74 34.3801 65.06 30.4001H67.34H67.32ZM53.37 45.8701C52.32 46.4501 51.94 47.7701 52.53 48.8201C52.74 49.2001 53.06 49.5101 53.45 49.7001C58.74 52.3701 60.4 63.4101 60.74 69.4801H39.15C39.48 63.4001 41.14 52.3701 46.44 49.7001C47.51 49.1601 47.94 47.8501 47.4 46.7801C47.2 46.3901 46.9 46.0701 46.52 45.8601C41.01 42.8001 39.59 34.3901 39.22 30.3801H60.68C60.31 34.3801 58.89 42.8001 53.38 45.8601L53.37 45.8701ZM49.94 52.1101C49.94 52.1101 56.46 57.3201 56.46 59.9301V67.3101H43.43V59.9301C43.43 57.3201 49.95 52.1101 49.95 52.1101H49.94Z" fill="#C1FFD7"/>
</g>
<defs>
<filter id="filter0_d_2601_4" x="0.73" y="0.73" width="109" height="109" filterUnits="userSpaceOnUse" color-interpolation-filters="sRGB">
<feFlood flood-opacity="0" result="BackgroundImageFix"/>
<feColorMatrix in="SourceAlpha" type="matrix" values="0 0 0 0 0 0 0 0 0 0 0 0 0 0 0 0 0 0 127 0" result="hardAlpha"/>
<feOffset dx="5.29" dy="5.29"/>
<feGaussianBlur stdDeviation="3.78"/>
<feColorMatrix type="matrix" values="0 0 0 0 0 0 0 0 0 0 0 0 0 0 0 0 0 0 0.75 0"/>
<feBlend mode="normal" in2="BackgroundImageFix" result="effect1_dropShadow_2601_4"/>
<feBlend mode="normal" in="SourceGraphic" in2="effect1_dropShadow_2601_4" result="shape"/>
</filter>
</defs>
</svg>
