<svg width="39" height="39" viewBox="0 0 39 39" fill="none" xmlns="http://www.w3.org/2000/svg">
<g filter="url(#filter0_d_521_251)">
<path d="M17.6719 33C26.0252 33 32.7969 26.2283 32.7969 17.875C32.7969 9.52169 26.0252 2.75 17.6719 2.75C9.31857 2.75 2.54688 9.52169 2.54688 17.875C2.54688 26.2283 9.31857 33 17.6719 33Z" fill="#29A9FF"/>
</g>
<path fill-rule="evenodd" clip-rule="evenodd" d="M19.0725 25.5676V18.6443H21.1745L21.5178 15.5672H19.0725V14.0685C19.0725 13.2763 19.0927 12.4902 20.1999 12.4902H21.3213V10.2903C21.3213 10.2572 20.358 10.1824 19.3835 10.1824C17.3484 10.1824 16.0741 11.4572 16.0741 13.7981V15.5672H13.8252V18.6443H16.0741V25.5676H19.0727H19.0725Z" fill="#1D1B22"/>
<defs>
<filter id="filter0_d_521_251" x="0.546875" y="0.75" width="38.25" height="38.25" filterUnits="userSpaceOnUse" color-interpolation-filters="sRGB">
<feFlood flood-opacity="0" result="BackgroundImageFix"/>
<feColorMatrix in="SourceAlpha" type="matrix" values="0 0 0 0 0 0 0 0 0 0 0 0 0 0 0 0 0 0 127 0" result="hardAlpha"/>
<feOffset dx="2" dy="2"/>
<feGaussianBlur stdDeviation="2"/>
<feColorMatrix type="matrix" values="0 0 0 0 0.0708333 0 0 0 0 0.0708333 0 0 0 0 0.0708333 0 0 0 0.65 0"/>
<feBlend mode="normal" in2="BackgroundImageFix" result="effect1_dropShadow_521_251"/>
<feBlend mode="normal" in="SourceGraphic" in2="effect1_dropShadow_521_251" result="shape"/>
</filter>
</defs>
</svg>
