<svg width="39" height="39" viewBox="0 0 39 39" fill="none" xmlns="http://www.w3.org/2000/svg">
<g filter="url(#filter0_d_521_257)">
<path d="M17.4609 33C25.8142 33 32.5859 26.2283 32.5859 17.875C32.5859 9.52169 25.8142 2.75 17.4609 2.75C9.10763 2.75 2.33594 9.52169 2.33594 17.875C2.33594 26.2283 9.10763 33 17.4609 33Z" fill="#29A9FF"/>
</g>
<path d="M20.6882 10.1824H14.2419C11.4417 10.1824 9.77246 11.8516 9.77246 14.6518V21.0905C9.77246 23.8984 11.4417 25.5676 14.2419 25.5676H20.6806C23.4807 25.5676 25.1501 23.8984 25.1501 21.0982V14.6518C25.1577 11.8516 23.4883 10.1824 20.6882 10.1824ZM17.465 20.8598C15.8188 20.8598 14.4803 19.5213 14.4803 17.8751C14.4803 16.229 15.8188 14.8905 17.465 14.8905C19.1111 14.8905 20.4496 16.229 20.4496 17.8751C20.4496 19.5213 19.1111 20.8598 17.465 20.8598ZM22.0189 13.9364C21.9804 14.0287 21.9266 14.1134 21.8574 14.1903C21.7805 14.2595 21.6958 14.3133 21.6035 14.3518C21.5112 14.3904 21.4113 14.4135 21.3111 14.4135C21.1034 14.4135 20.9112 14.3366 20.7649 14.1903C20.6956 14.1134 20.6419 14.0287 20.6033 13.9364C20.5648 13.8441 20.5417 13.7442 20.5417 13.644C20.5417 13.5439 20.5648 13.444 20.6033 13.3516C20.6419 13.2517 20.6956 13.1746 20.7649 13.0978C20.9419 12.9208 21.211 12.8363 21.4572 12.8901C21.511 12.8977 21.5571 12.9132 21.6033 12.9362C21.6494 12.9517 21.6956 12.9748 21.7417 13.0055C21.7803 13.0286 21.8186 13.0671 21.8571 13.0978C21.9264 13.1746 21.9801 13.2517 22.0187 13.3516C22.0572 13.444 22.0803 13.5439 22.0803 13.644C22.0803 13.7442 22.0572 13.8441 22.0187 13.9364H22.0189Z" fill="#1D1B22"/>
<defs>
<filter id="filter0_d_521_257" x="0.335938" y="0.75" width="38.25" height="38.25" filterUnits="userSpaceOnUse" color-interpolation-filters="sRGB">
<feFlood flood-opacity="0" result="BackgroundImageFix"/>
<feColorMatrix in="SourceAlpha" type="matrix" values="0 0 0 0 0 0 0 0 0 0 0 0 0 0 0 0 0 0 127 0" result="hardAlpha"/>
<feOffset dx="2" dy="2"/>
<feGaussianBlur stdDeviation="2"/>
<feColorMatrix type="matrix" values="0 0 0 0 0.0708333 0 0 0 0 0.0708333 0 0 0 0 0.0708333 0 0 0 0.65 0"/>
<feBlend mode="normal" in2="BackgroundImageFix" result="effect1_dropShadow_521_257"/>
<feBlend mode="normal" in="SourceGraphic" in2="effect1_dropShadow_521_257" result="shape"/>
</filter>
</defs>
</svg>
