<svg width="55" height="55" viewBox="0 0 55 55" fill="none" xmlns="http://www.w3.org/2000/svg">
<g clip-path="url(#clip0_2715_8)">
<path d="M55 27.5C55 12.3122 42.6878 0 27.5 0C12.3122 0 0 12.3122 0 27.5C0 42.6878 12.3122 55 27.5 55C42.6878 55 55 42.6878 55 27.5Z" fill="#2D3136"/>
<path d="M44.0796 23.2265C42.8182 22.2175 41.2079 21.5243 39.5458 21.2577C39.0416 18.0437 37.7017 15.2965 35.6382 13.2638C33.4528 11.1063 30.5629 9.92017 27.5 9.92017C24.8073 9.92017 22.3203 10.8291 20.3117 12.5493C18.7856 13.8578 17.5969 15.5664 16.8596 17.5113C14.579 17.8887 12.5086 18.8796 10.9646 20.3455C9.02527 22.1871 8 24.6407 8 27.442C8 30.2738 9.10373 32.8561 11.1071 34.7231C13.0205 36.5024 15.5966 37.4827 18.3594 37.4827H26.2812V24.9015L22.625 28.839L20.9012 26.9827L27.5 19.8771L34.0988 26.9827L32.375 28.839L28.7188 24.9015V37.4827H38.1641C40.5513 37.4827 42.7275 36.7608 44.2921 35.4507C46.0638 33.966 47 31.8414 47 29.3124C47 26.8563 45.99 24.7506 44.0796 23.2265ZM26.2812 37.4827H28.7188V44.0788H26.2812V37.4827Z" fill="#3663EB"/>
</g>
<defs>
<clipPath id="clip0_2715_8">
<rect width="55" height="55" fill="white"/>
</clipPath>
</defs>
</svg>
